<svg xmlns="http://www.w3.org/2000/svg" xmlns:xlink="http://www.w3.org/1999/xlink" width="200" height="200" version="1.1" viewBox="0 0 200 200"><g id="surface1"><rect width="200" height="200" x="0" y="0" style="fill:#070707;fill-opacity:1;stroke:none"/><path style="stroke:none;fill-rule:nonzero;fill:#070707;fill-opacity:1" d="M 22.324219 22.324219 L 178.605469 22.324219 L 178.605469 178.605469 L 22.324219 178.605469 Z M 22.324219 22.324219"/><path style="stroke:none;fill-rule:nonzero;fill:#1fd5f9;fill-opacity:1" d="M 111.628906 89.300781 L 89.300781 89.300781 L 89.300781 111.628906 L 111.628906 111.628906 Z M 133.957031 66.976562 L 111.632812 66.976562 L 111.632812 89.3125 L 133.957031 89.3125 Z M 133.957031 111.628906 L 111.632812 111.628906 L 111.632812 133.957031 L 133.957031 133.957031 Z M 156.277344 44.652344 L 133.953125 44.652344 L 133.953125 66.976562 L 156.277344 66.976562 Z M 156.277344 44.652344"/><path style="stroke:none;fill-rule:nonzero;fill:#1fd5f9;fill-opacity:1" d="M 156.277344 133.953125 L 133.953125 133.953125 L 133.953125 156.277344 L 156.277344 156.277344 Z M 156.277344 133.953125"/><path style="stroke:none;fill-rule:nonzero;fill:#fff;fill-opacity:1" d="M 66.976562 133.953125 L 66.976562 44.652344 L 44.652344 44.652344 L 44.652344 156.277344 L 111.628906 156.277344 L 111.628906 133.953125 L 66.976562 133.953125"/></g></svg>