<svg xmlns="http://www.w3.org/2000/svg" xmlns:svg="http://www.w3.org/2000/svg" id="svg44" width="16" height="16" enable-background="new 0 0 64 64" version="1.1" viewBox="0 0 16 16" xml:space="preserve"><metadata id="metadata50"/><defs id="defs48"><marker style="overflow:visible" id="TriangleOutS" orient="auto" refX="0" refY="0"><path style="fill:#5c2983;fill-opacity:1;fill-rule:evenodd;stroke:#5c2983;stroke-width:1pt;stroke-opacity:1" id="path1029" d="M 5.77,0 -2.88,5 V -5 Z" transform="scale(0.2)"/></marker><marker style="overflow:visible" id="TriangleOutM" orient="auto" refX="0" refY="0"><path style="fill:#000;fill-opacity:1;fill-rule:evenodd;stroke:#000;stroke-width:1pt;stroke-opacity:1" id="path1026" d="M 5.77,0 -2.88,5 V -5 Z" transform="scale(0.4)"/></marker><marker id="marker1067" orient="auto" refX="0" refY="0" style="overflow:visible"><path id="path1065" d="M 5.77,0 -2.88,5 V -5 Z" transform="scale(0.2)" style="fill:#5c2983;fill-opacity:1;fill-rule:evenodd;stroke:#5c2983;stroke-width:1pt;stroke-opacity:1"/></marker><marker style="overflow:visible" id="TriangleOutM-3" orient="auto" refX="0" refY="0"><path style="fill:#000;fill-opacity:1;fill-rule:evenodd;stroke:#000;stroke-width:1pt;stroke-opacity:1" id="path1026-63" d="M 5.77,0 -2.88,5 V -5 Z" transform="scale(0.4)"/></marker><marker id="TriangleOutS-3" orient="auto" refX="0" refY="0" style="overflow:visible"><path id="path1029-4" d="M 5.77,0 -2.88,5 V -5 Z" transform="scale(0.2)" style="fill:#5c2983;fill-opacity:1;fill-rule:evenodd;stroke:#5c2983;stroke-width:1pt;stroke-opacity:1"/></marker><marker id="TriangleOutM-5" orient="auto" refX="0" refY="0" style="overflow:visible"><path id="path1026-6" d="M 5.77,0 -2.88,5 V -5 Z" transform="scale(0.4)" style="fill:#000;fill-opacity:1;fill-rule:evenodd;stroke:#000;stroke-width:1pt;stroke-opacity:1"/></marker><marker id="TriangleOutS-7" orient="auto" refX="0" refY="0" style="overflow:visible"><path id="path1029-0" d="M 5.77,0 -2.88,5 V -5 Z" transform="scale(0.2)" style="fill:#5c2983;fill-opacity:1;fill-rule:evenodd;stroke:#5c2983;stroke-width:1pt;stroke-opacity:1"/></marker><marker id="TriangleOutM-6" orient="auto" refX="0" refY="0" style="overflow:visible"><path id="path1026-0" d="M 5.77,0 -2.88,5 V -5 Z" transform="scale(0.4)" style="fill:#000;fill-opacity:1;fill-rule:evenodd;stroke:#000;stroke-width:1pt;stroke-opacity:1"/></marker><marker id="TriangleOutS-2" orient="auto" refX="0" refY="0" style="overflow:visible"><path id="path1029-2" d="M 5.77,0 -2.88,5 V -5 Z" transform="scale(0.2)" style="fill:#5c2983;fill-opacity:1;fill-rule:evenodd;stroke:#5c2983;stroke-width:1pt;stroke-opacity:1"/></marker><marker id="TriangleOutM-7" orient="auto" refX="0" refY="0" style="overflow:visible"><path id="path1026-03" d="M 5.77,0 -2.88,5 V -5 Z" transform="scale(0.4)" style="fill:#000;fill-opacity:1;fill-rule:evenodd;stroke:#000;stroke-width:1pt;stroke-opacity:1"/></marker><marker style="overflow:visible" id="marker1067-6" orient="auto" refX="0" refY="0"><path style="fill:#5c2983;fill-opacity:1;fill-rule:evenodd;stroke:#5c2983;stroke-width:1pt;stroke-opacity:1" id="path1065-3" d="M 5.77,0 -2.88,5 V -5 Z" transform="scale(0.2)"/></marker><marker id="TriangleOutM-79" orient="auto" refX="0" refY="0" style="overflow:visible"><path id="path1026-7" d="M 5.77,0 -2.88,5 V -5 Z" transform="scale(0.4)" style="fill:#000;fill-opacity:1;fill-rule:evenodd;stroke:#000;stroke-width:1pt;stroke-opacity:1"/></marker></defs><g style="display:inline;stroke-width:.883322" id="Collabora" transform="matrix(0.32961581,0,0,0.32961581,-0.85768313,-3.0774792)"><g style="font-size:28.0163px;line-height:1.25;font-family:'Segoe UI';-inkscape-font-specification:'Segoe UI';letter-spacing:0;word-spacing:0;display:inline;fill:#fff;fill-opacity:1;stroke:none;stroke-width:1.26897" id="Logo" transform="matrix(0.69833864,0,0,0.69385158,12.02261,10.973709)"><path id="path864-6" d="M 2.0988724,16.566254 3.1191844,15.539343 20.091471,32.621383 3.1191844,49.703423 2.0988724,48.674025 18.050844,32.621383 Z" style="fill:#fff;stroke:none;stroke-width:1.26898px;stroke-linecap:butt;stroke-linejoin:miter;stroke-opacity:1"/><path id="path866-3" d="M -49.050781,19.441406 V 44.662109 L -36.439453,32.052734 Z" transform="matrix(1.2648923,0,0,1.273072,64.142828,-8.1840554)" style="fill:#c8c8c8;fill-opacity:1;stroke:none;stroke-width:.999999px;stroke-linecap:butt;stroke-linejoin:miter;stroke-opacity:1"/><path id="path868-5" d="M -37.621094,8.0097656 -48.244141,18.634766 -34.826172,32.052734 -48.244141,45.470703 -37.621094,56.09375 -13.578125,32.052734 Z" transform="matrix(1.2648923,0,0,1.273072,64.142828,-8.1840554)" style="fill:#5c2983;fill-opacity:1;stroke:none;stroke-width:6.00001;stroke-linejoin:round;paint-order:stroke fill markers"/><path id="path870-0" d="m -38.115234,35.341797 -8.873675,8.865852 13.090471,-2.88929 z" transform="matrix(1.2648923,0,0,1.273072,64.142828,-8.1840554)" style="fill:#2e1a47;stroke:none;stroke-width:1.68107"/></g><path id="guides-right-x" d="m 188.87094,28.98456 3.19386,4.90285 3.30592,-4.90285 h 3.72616 l -5.21103,7.284231 5.43516,7.620425 h -3.86625 l -3.55806,-4.958879 -3.47402,4.958879 h -3.67013 l 5.29507,-7.592407 -5.01491,-7.312249 z" style="font-style:normal;font-variant:normal;font-weight:400;font-stretch:normal;font-size:25.0182px;line-height:1.25;font-family:Montserrat;-inkscape-font-specification:Montserrat;letter-spacing:0;word-spacing:0;display:none;fill:#fff;fill-opacity:1;stroke-width:.883322"/><path style="font-style:normal;font-variant:normal;font-weight:400;font-stretch:normal;font-size:25.0182px;line-height:1.25;font-family:Montserrat;-inkscape-font-specification:Montserrat;letter-spacing:0;word-spacing:0;display:none;fill:#fff;fill-opacity:1;stroke-width:.883322" id="guides-bottom-x" d="m 17.606724,54.84409 3.19386,4.90285 3.30592,-4.90285 h 3.72616 l -5.21103,7.284231 5.43516,7.620425 h -3.86625 l -3.55806,-4.958879 -3.47402,4.958879 h -3.67013 l 5.29507,-7.592407 -5.01491,-7.312249 z"/><path id="guides-top-x" d="m 17.606724,-2.5342603 3.19386,4.90285 3.30592,-4.90285 h 3.72616 l -5.21103,7.284231 5.43516,7.6204253 h -3.86625 l -3.55806,-4.9588793 -3.47402,4.9588793 h -3.67013 l 5.29507,-7.5924073 -5.01491,-7.312249 z" style="font-style:normal;font-variant:normal;font-weight:400;font-stretch:normal;font-size:25.0182px;line-height:1.25;font-family:Montserrat;-inkscape-font-specification:Montserrat;letter-spacing:0;word-spacing:0;display:none;fill:#fff;fill-opacity:1;stroke-width:.883322"/><path id="guides-left-x" d="m 3.0382639,28.98456 3.19386,4.90285 3.30592,-4.90285 h 3.7261601 l -5.2110301,7.284231 5.4351601,7.620425 H 9.6220839 l -3.55806,-4.958879 -3.47402,4.958879 h -3.67013 l 5.29507,-7.592407 -5.01490996,-7.312249 z" style="font-style:normal;font-variant:normal;font-weight:400;font-stretch:normal;font-size:25.0182px;line-height:1.25;font-family:Montserrat;-inkscape-font-specification:Montserrat;letter-spacing:0;word-spacing:0;display:none;fill:#fff;fill-opacity:1;stroke-width:.883322"/></g></svg>