<svg xmlns="http://www.w3.org/2000/svg" viewBox="0 0 800 800"><rect width="800" height="800" fill="#0042DA" rx="80" style="--darkreader-inline-fill:#0035ae"/><rect width="85.47" height="384.617" x="650" y="293" fill="#FF8E20" rx="20" transform="rotate(90 650 293)" style="--darkreader-inline-fill:#ff9630"/><path fill="#FF8E20" fill-rule="evenodd" d="M192.735 378.47c23.602 0 42.735-19.133 42.735-42.735S216.337 293 192.735 293 150 312.133 150 335.735s19.133 42.735 42.735 42.735Z" clip-rule="evenodd" style="--darkreader-inline-fill:#ff9630"/><rect width="85.47" height="384.617" x="150" y="506.677" fill="#fff" rx="20" transform="rotate(-90 150 506.677)" style="--darkreader-inline-fill:#e8e6e3"/><path fill="#fff" fill-rule="evenodd" d="M607.265 421.206c-23.602 0-42.735 19.134-42.735 42.736 0 23.602 19.133 42.735 42.735 42.735S650 487.544 650 463.942s-19.133-42.736-42.735-42.736Z" clip-rule="evenodd" style="--darkreader-inline-fill:#e8e6e3"/></svg>